<svg width="31" height="28" viewBox="0 0 31 28" fill="none" xmlns="http://www.w3.org/2000/svg">
<mask id="mask0_856_1436" style="mask-type:alpha" maskUnits="userSpaceOnUse" x="1" y="1" width="28" height="26">
<path d="M15.0767 1.16663C22.7088 1.16663 28.8955 6.91141 28.8955 13.9984C28.8955 21.0854 22.7088 26.8302 15.0767 26.8302C12.8411 26.8329 10.6384 26.3299 8.65919 25.3648L2.73091 26.7981C2.53283 26.846 2.3247 26.845 2.12715 26.7952C1.92961 26.7454 1.74951 26.6485 1.6047 26.5142C1.45989 26.3799 1.3554 26.2127 1.30158 26.0293C1.24777 25.846 1.2465 25.6527 1.2979 25.4687L2.84008 19.9652C1.79787 18.1253 1.25475 16.0772 1.25783 13.9984C1.25783 6.91141 7.44451 1.16663 15.0767 1.16663Z" fill="#006FFD"/>
</mask>
<g mask="url(#mask0_856_1436)">
<rect width="30.1538" height="28" fill="#717171"/>
</g>
</svg>
