<svg width="28" height="28" viewBox="0 0 28 28" fill="none" xmlns="http://www.w3.org/2000/svg">
<path d="M18.1916 3.53172C17.1273 2.38273 15.6409 1.75 14.0003 1.75C12.3509 1.75 10.8596 2.37891 9.80031 3.52078C8.72953 4.67523 8.20781 6.24422 8.33031 7.93844C8.57313 11.2809 11.1166 14 14.0003 14C16.884 14 19.4231 11.2815 19.6698 7.93953C19.7939 6.26062 19.2689 4.69492 18.1916 3.53172ZM23.6253 26.25H4.37531C4.12335 26.2533 3.87382 26.2003 3.64489 26.0951C3.41595 25.9898 3.21337 25.8348 3.05188 25.6413C2.69641 25.2164 2.55313 24.6362 2.65922 24.0494C3.12078 21.4889 4.56125 19.338 6.82531 17.8281C8.83672 16.4877 11.3846 15.75 14.0003 15.75C16.616 15.75 19.1639 16.4883 21.1753 17.8281C23.4394 19.3375 24.8798 21.4884 25.3414 24.0488C25.4475 24.6356 25.3042 25.2159 24.9487 25.6408C24.7873 25.8343 24.5847 25.9894 24.3558 26.0948C24.1269 26.2002 23.8773 26.2532 23.6253 26.25Z" fill="#717171"/>
</svg>
