<svg width="26" height="30" viewBox="0 0 26 30" fill="none" xmlns="http://www.w3.org/2000/svg">
<g clip-path="url(#clip0_285_2569)">
<path d="M7.84643 1.03711C8.15982 0.398438 8.80402 0 9.50625 0H16.4937C17.196 0 17.8402 0.398438 18.1536 1.03711L18.5714 1.875H24.1429C25.1701 1.875 26 2.71289 26 3.75C26 4.78711 25.1701 5.625 24.1429 5.625H1.85714C0.829911 5.625 0 4.78711 0 3.75C0 2.71289 0.829911 1.875 1.85714 1.875H7.42857L7.84643 1.03711ZM1.85714 7.5H24.1429V26.25C24.1429 28.3184 22.4772 30 20.4286 30H5.57143C3.52277 30 1.85714 28.3184 1.85714 26.25V7.5ZM7.42857 11.25C6.91786 11.25 6.5 11.6719 6.5 12.1875V25.3125C6.5 25.8281 6.91786 26.25 7.42857 26.25C7.93929 26.25 8.35714 25.8281 8.35714 25.3125V12.1875C8.35714 11.6719 7.93929 11.25 7.42857 11.25ZM13 11.25C12.4893 11.25 12.0714 11.6719 12.0714 12.1875V25.3125C12.0714 25.8281 12.4893 26.25 13 26.25C13.5107 26.25 13.9286 25.8281 13.9286 25.3125V12.1875C13.9286 11.6719 13.5107 11.25 13 11.25ZM18.5714 11.25C18.0607 11.25 17.6429 11.6719 17.6429 12.1875V25.3125C17.6429 25.8281 18.0607 26.25 18.5714 26.25C19.0821 26.25 19.5 25.8281 19.5 25.3125V12.1875C19.5 11.6719 19.0821 11.25 18.5714 11.25Z" fill="black"/>
</g>
<defs>
<clipPath id="clip0_285_2569">
<rect width="26" height="30" fill="white"/>
</clipPath>
</defs>
</svg>
